<svg width="100" height="100" viewBox="0 0 100 100" fill="none" xmlns="http://www.w3.org/2000/svg">
<rect width="100" height="100" rx="50" fill="#941D80"/>
<path d="M70 46.2998C70 57.3455 61.0457 66.2998 50 66.2998C38.9543 66.2998 30 57.3455 30 46.2998C30 35.2541 38.9543 26.2998 50 26.2998C61.0457 26.2998 70 35.2541 70 46.2998ZM40 46.2998C40 51.8227 44.4772 56.2998 50 56.2998C55.5228 56.2998 60 51.8227 60 46.2998C60 40.777 55.5228 36.2998 50 36.2998C44.4772 36.2998 40 40.777 40 46.2998Z" fill="url(#paint0_angular_43_397)"/>
<path d="M50 56.2998C54.4027 56.2998 58.6823 57.7526 62.1752 60.4327C65.6681 63.1129 68.179 66.8708 69.3185 71.1234L59.6593 73.7116C59.0895 71.5853 57.8341 69.7064 56.0876 68.3663C54.3412 67.0262 52.2013 66.2998 50 66.2998L50 56.2998Z" fill="url(#paint1_angular_43_397)"/>
<defs>
<radialGradient id="paint0_angular_43_397" cx="0" cy="0" r="1" gradientUnits="userSpaceOnUse" gradientTransform="translate(50 46.2998) rotate(90) scale(20)">
<stop stop-color="white"/>
<stop offset="0.520833" stop-color="white"/>
<stop offset="1" stop-color="white" stop-opacity="0"/>
</radialGradient>
<radialGradient id="paint1_angular_43_397" cx="0" cy="0" r="1" gradientUnits="userSpaceOnUse" gradientTransform="translate(50 76.2998) rotate(-90) scale(26.35)">
<stop stop-color="white"/>
<stop offset="0.520833" stop-color="white"/>
<stop offset="1" stop-color="white" stop-opacity="0"/>
</radialGradient>
</defs>
</svg>
